# xmcd
# 
# Track frame offsets:
#     150
#     7148
#     30320
#     48883
#     70083
#     87048
#     117123
#     133400
#     155158
#     178545
#     198695
# 
# Disc length: 2675
# 
# Revision: 2
# Processed by: cddbd v1.5.2PL0 Copyright (c) Steve Scherf et al.
# Submitted via: BonkEnc v1.0
# 
DISCID=920a710b
DTITLE=ネーネーズ - IKAWU
DYEAR=0
DGENRE=Vocal
TTITLE0=月ぬ美しゃ
TTITLE1=七月エイサー <出羽>
TTITLE2=ヨーアフィ小
TTITLE3=テーゲー
TTITLE4=ナミカジ
TTITLE5=IKAWU
TTITLE6=ジントーヨーワルツ
TTITLE7=タボラレ
TTITLE8=永良部シュンサミー〜永良部百合の花
TTITLE9=七月エイサー <入羽>
TTITLE10=月ぬ美しゃ -reprise-
EXTD=
EXTT0=
EXTT1=
EXTT2=
EXTT3=
EXTT4=
EXTT5=
EXTT6=
EXTT7=
EXTT8=
EXTT9=
EXTT10=
PLAYORDER=
